<mxfile host="app.diagrams.net" modified="2020-04-26T21:20:16.008Z" agent="5.0 (X11; Linux x86_64) AppleWebKit/537.36 (KHTML, like Gecko) Chrome/73.0.3683.75 Safari/537.36" etag="1OMmSCO2j8PlbCxhIudI" version="13.0.1" type="github">
  <diagram id="f30_K3znCM3BSg6AbHZj" name="Page-1">
    <mxGraphModel dx="998" dy="480" grid="1" gridSize="10" guides="1" tooltips="1" connect="1" arrows="1" fold="1" page="1" pageScale="1" pageWidth="1169" pageHeight="827" math="0" shadow="0">
      <root>
        <mxCell id="0" />
        <mxCell id="1" parent="0" />
        <mxCell id="_cQJjbfpAz3ZmFyTizoA-23" value="Ajout d&#39;un utilisateur" style="shape=umlFrame;whiteSpace=wrap;html=1;fillColor=#ffffff;align=center;gradientColor=none;" parent="1" vertex="1">
          <mxGeometry width="1520" height="980" as="geometry" />
        </mxCell>
        <mxCell id="_cQJjbfpAz3ZmFyTizoA-38" value="loop" style="shape=umlFrame;whiteSpace=wrap;html=1;fillColor=none;swimlaneFillColor=none;" parent="1" vertex="1">
          <mxGeometry x="20" y="460" width="1390" height="310" as="geometry" />
        </mxCell>
        <mxCell id="4ZUGz-onwbik7Qpdnvin-3" value="Alt" style="shape=umlFrame;whiteSpace=wrap;html=1;fillColor=none;swimlaneFillColor=none;" vertex="1" parent="1">
          <mxGeometry x="30" y="520" width="1370" height="240" as="geometry" />
        </mxCell>
        <mxCell id="_cQJjbfpAz3ZmFyTizoA-1" value="" style="shape=umlLifeline;participant=umlActor;perimeter=lifelinePerimeter;whiteSpace=wrap;html=1;container=1;collapsible=0;recursiveResize=0;verticalAlign=top;spacingTop=36;labelBackgroundColor=#ffffff;outlineConnect=0;size=40;" parent="1" vertex="1">
          <mxGeometry x="170" y="40" width="20" height="920" as="geometry" />
        </mxCell>
        <mxCell id="_cQJjbfpAz3ZmFyTizoA-2" value=":FrontEnd" style="shape=umlLifeline;perimeter=lifelinePerimeter;whiteSpace=wrap;html=1;container=1;collapsible=0;recursiveResize=0;outlineConnect=0;" parent="1" vertex="1">
          <mxGeometry x="555" y="37" width="100" height="923" as="geometry" />
        </mxCell>
        <mxCell id="_cQJjbfpAz3ZmFyTizoA-27" value="" style="html=1;points=[];perimeter=orthogonalPerimeter;strokeWidth=7;fillColor=#67AB9F;strokeColor=#67AB9F;" parent="_cQJjbfpAz3ZmFyTizoA-2" vertex="1">
          <mxGeometry x="45" y="170" width="10" height="80" as="geometry" />
        </mxCell>
        <mxCell id="_cQJjbfpAz3ZmFyTizoA-3" value=":BackEnd" style="shape=umlLifeline;perimeter=lifelinePerimeter;whiteSpace=wrap;html=1;container=1;collapsible=0;recursiveResize=0;outlineConnect=0;" parent="1" vertex="1">
          <mxGeometry x="940" y="40" width="100" height="790" as="geometry" />
        </mxCell>
        <mxCell id="4ZUGz-onwbik7Qpdnvin-11" value="" style="html=1;points=[];perimeter=orthogonalPerimeter;strokeColor=#67AB9F;strokeWidth=7;fillColor=#67AB9F;gradientColor=none;opacity=70;" vertex="1" parent="_cQJjbfpAz3ZmFyTizoA-3">
          <mxGeometry x="45" y="610" width="10" height="40" as="geometry" />
        </mxCell>
        <mxCell id="4ZUGz-onwbik7Qpdnvin-22" value="" style="html=1;points=[];perimeter=orthogonalPerimeter;strokeColor=#67AB9F;strokeWidth=7;fillColor=#67AB9F;gradientColor=none;opacity=70;" vertex="1" parent="_cQJjbfpAz3ZmFyTizoA-3">
          <mxGeometry x="45" y="740" width="10" height="30" as="geometry" />
        </mxCell>
        <mxCell id="_cQJjbfpAz3ZmFyTizoA-4" value=":DataBase" style="shape=umlLifeline;perimeter=lifelinePerimeter;whiteSpace=wrap;html=1;container=1;collapsible=0;recursiveResize=0;outlineConnect=0;" parent="1" vertex="1">
          <mxGeometry x="1260" y="40" width="100" height="900" as="geometry" />
        </mxCell>
        <mxCell id="_cQJjbfpAz3ZmFyTizoA-43" value="" style="html=1;points=[];perimeter=orthogonalPerimeter;strokeColor=#67AB9F;strokeWidth=7;fillColor=#67AB9F;gradientColor=none;opacity=70;" parent="_cQJjbfpAz3ZmFyTizoA-4" vertex="1">
          <mxGeometry x="45" y="460" width="10" height="150" as="geometry" />
        </mxCell>
        <mxCell id="4ZUGz-onwbik7Qpdnvin-1" value="VÃ©rifier&lt;br&gt;&amp;nbsp;l&#39;inexistance&lt;br&gt;&amp;nbsp;de l&#39;utilisateur" style="edgeStyle=orthogonalEdgeStyle;html=1;align=left;spacingLeft=2;endArrow=block;rounded=0;entryX=1.229;entryY=0.384;entryDx=0;entryDy=0;entryPerimeter=0;exitX=1.347;exitY=0.227;exitDx=0;exitDy=0;exitPerimeter=0;labelBackgroundColor=none;" edge="1" parent="_cQJjbfpAz3ZmFyTizoA-4" source="_cQJjbfpAz3ZmFyTizoA-43" target="_cQJjbfpAz3ZmFyTizoA-43">
          <mxGeometry x="0.2305" y="-5" relative="1" as="geometry">
            <mxPoint x="75" y="524" as="sourcePoint" />
            <Array as="points">
              <mxPoint x="58" y="490" />
              <mxPoint x="75" y="490" />
              <mxPoint x="75" y="518" />
            </Array>
            <mxPoint x="55" y="480" as="targetPoint" />
            <mxPoint y="-1" as="offset" />
          </mxGeometry>
        </mxCell>
        <mxCell id="_cQJjbfpAz3ZmFyTizoA-8" value="Ref" style="shape=umlFrame;whiteSpace=wrap;html=1;fillColor=#ffffff;swimlaneFillColor=#ffffff;opacity=70;" parent="1" vertex="1">
          <mxGeometry x="10" y="120" width="1420" height="60" as="geometry" />
        </mxCell>
        <mxCell id="_cQJjbfpAz3ZmFyTizoA-18" value="&lt;b&gt;&lt;font style=&quot;font-size: 19px&quot; color=&quot;#666666&quot;&gt;S&#39;authentifier&lt;/font&gt;&lt;/b&gt;" style="text;html=1;resizable=0;autosize=1;align=center;verticalAlign=middle;points=[];fillColor=none;strokeColor=none;rounded=0;" parent="1" vertex="1">
          <mxGeometry x="515" y="140" width="140" height="20" as="geometry" />
        </mxCell>
        <mxCell id="_cQJjbfpAz3ZmFyTizoA-29" value="Afficher la page d&#39;ajout d&#39;utilisateu (professeur / etudiant)" style="html=1;verticalAlign=bottom;endArrow=open;dashed=1;endSize=8;exitX=0;exitY=0.95;horizontal=1;" parent="1" source="_cQJjbfpAz3ZmFyTizoA-27" target="_cQJjbfpAz3ZmFyTizoA-1" edge="1">
          <mxGeometry x="-0.0492" y="-13" relative="1" as="geometry">
            <mxPoint x="385" y="286" as="targetPoint" />
            <mxPoint as="offset" />
          </mxGeometry>
        </mxCell>
        <mxCell id="_cQJjbfpAz3ZmFyTizoA-28" value="demande de l&#39;interfcace d&#39;ajout d&#39;un utilisateur" style="html=1;verticalAlign=bottom;endArrow=block;entryX=0;entryY=0;" parent="1" source="_cQJjbfpAz3ZmFyTizoA-1" target="_cQJjbfpAz3ZmFyTizoA-27" edge="1">
          <mxGeometry relative="1" as="geometry">
            <mxPoint x="385" y="210" as="sourcePoint" />
          </mxGeometry>
        </mxCell>
        <mxCell id="_cQJjbfpAz3ZmFyTizoA-30" value="" style="html=1;points=[];perimeter=orthogonalPerimeter;strokeColor=#67AB9F;strokeWidth=7;fillColor=#67AB9F;gradientColor=none;opacity=70;" parent="1" vertex="1">
          <mxGeometry x="600" y="350" width="10" height="70" as="geometry" />
        </mxCell>
        <mxCell id="_cQJjbfpAz3ZmFyTizoA-31" value="Importer fichier csv des utilisateurs&amp;nbsp;" style="html=1;verticalAlign=bottom;startArrow=none;endArrow=block;startSize=8;startFill=0;entryX=0.2;entryY=0.037;entryDx=0;entryDy=0;entryPerimeter=0;" parent="1" target="_cQJjbfpAz3ZmFyTizoA-30" edge="1" source="_cQJjbfpAz3ZmFyTizoA-1">
          <mxGeometry relative="1" as="geometry">
            <mxPoint x="180" y="400" as="sourcePoint" />
            <mxPoint x="-1" as="offset" />
          </mxGeometry>
        </mxCell>
        <mxCell id="_cQJjbfpAz3ZmFyTizoA-32" value="" style="html=1;points=[];perimeter=orthogonalPerimeter;strokeColor=#67AB9F;strokeWidth=7;fillColor=#67AB9F;gradientColor=none;opacity=70;" parent="1" vertex="1">
          <mxGeometry x="985" y="410" width="10" height="90" as="geometry" />
        </mxCell>
        <mxCell id="_cQJjbfpAz3ZmFyTizoA-33" value="envoyer le fichier" style="html=1;verticalAlign=bottom;startArrow=none;endArrow=block;startSize=8;startFill=0;" parent="1" source="_cQJjbfpAz3ZmFyTizoA-30" target="_cQJjbfpAz3ZmFyTizoA-32" edge="1">
          <mxGeometry x="0.011" relative="1" as="geometry">
            <mxPoint x="925" y="460" as="sourcePoint" />
            <mxPoint as="offset" />
          </mxGeometry>
        </mxCell>
        <mxCell id="_cQJjbfpAz3ZmFyTizoA-35" value="Verif fichier non vide&amp;nbsp;&lt;br&gt;Verif le&amp;nbsp; bon format" style="edgeStyle=orthogonalEdgeStyle;html=1;align=left;spacingLeft=2;endArrow=block;rounded=0;entryX=1;entryY=0;" parent="1" edge="1">
          <mxGeometry relative="1" as="geometry">
            <mxPoint x="995" y="420" as="sourcePoint" />
            <Array as="points">
              <mxPoint x="1020" y="420" />
            </Array>
            <mxPoint x="1000" y="440" as="targetPoint" />
          </mxGeometry>
        </mxCell>
        <mxCell id="_cQJjbfpAz3ZmFyTizoA-39" value="envoyer les informations de l&#39;utilisateur" style="html=1;verticalAlign=bottom;endArrow=block;entryX=0.928;entryY=0.13;entryDx=0;entryDy=0;entryPerimeter=0;exitX=0.698;exitY=0.13;exitDx=0;exitDy=0;exitPerimeter=0;" parent="1" source="_cQJjbfpAz3ZmFyTizoA-38" target="_cQJjbfpAz3ZmFyTizoA-38" edge="1">
          <mxGeometry x="-0.0004" width="80" relative="1" as="geometry">
            <mxPoint x="1030" y="500" as="sourcePoint" />
            <mxPoint x="1110" y="500" as="targetPoint" />
            <mxPoint as="offset" />
          </mxGeometry>
        </mxCell>
        <mxCell id="4ZUGz-onwbik7Qpdnvin-4" value="[ Success ]" style="text;align=center;fontStyle=1;verticalAlign=middle;spacingLeft=3;spacingRight=3;strokeColor=none;rotatable=0;points=[[0,0.5],[1,0.5]];portConstraint=eastwest;fillColor=none;gradientColor=none;opacity=70;fontColor=#000000;" vertex="1" parent="1">
          <mxGeometry x="110" y="522" width="80" height="26" as="geometry" />
        </mxCell>
        <mxCell id="4ZUGz-onwbik7Qpdnvin-5" value="Message de succes d&#39;ajout&amp;nbsp;" style="html=1;verticalAlign=bottom;endArrow=open;dashed=1;endSize=8;fontColor=#000000;" edge="1" parent="1">
          <mxGeometry relative="1" as="geometry">
            <mxPoint x="1310" y="570" as="sourcePoint" />
            <mxPoint x="990" y="570" as="targetPoint" />
          </mxGeometry>
        </mxCell>
        <mxCell id="4ZUGz-onwbik7Qpdnvin-6" value="" style="line;strokeWidth=1;fillColor=none;align=left;verticalAlign=middle;spacingTop=-1;spacingLeft=3;spacingRight=3;rotatable=0;labelPosition=right;points=[];portConstraint=eastwest;fontColor=#000000;opacity=70;dashed=1;" vertex="1" parent="1">
          <mxGeometry x="30" y="596" width="1380" height="8" as="geometry" />
        </mxCell>
        <mxCell id="4ZUGz-onwbik7Qpdnvin-7" value="[ Echec ]" style="text;align=center;fontStyle=1;verticalAlign=middle;spacingLeft=3;spacingRight=3;strokeColor=none;rotatable=0;points=[[0,0.5],[1,0.5]];portConstraint=eastwest;fillColor=none;gradientColor=none;opacity=70;fontColor=#000000;" vertex="1" parent="1">
          <mxGeometry x="110" y="596" width="80" height="26" as="geometry" />
        </mxCell>
        <mxCell id="4ZUGz-onwbik7Qpdnvin-9" value="else" style="text;align=center;fontStyle=1;verticalAlign=middle;spacingLeft=3;spacingRight=3;strokeColor=none;rotatable=0;points=[[0,0.5],[1,0.5]];portConstraint=eastwest;fillColor=none;gradientColor=none;opacity=70;fontColor=#000000;fontSize=13;" vertex="1" parent="1">
          <mxGeometry x="40" y="596" width="80" height="26" as="geometry" />
        </mxCell>
        <mxCell id="4ZUGz-onwbik7Qpdnvin-10" value="Message d&#39;echec d&#39;ajout&amp;nbsp;" style="html=1;verticalAlign=bottom;endArrow=open;dashed=1;endSize=8;fontColor=#000000;" edge="1" parent="1">
          <mxGeometry relative="1" as="geometry">
            <mxPoint x="1305" y="650" as="sourcePoint" />
            <mxPoint x="985" y="650" as="targetPoint" />
          </mxGeometry>
        </mxCell>
        <mxCell id="4ZUGz-onwbik7Qpdnvin-13" value="" style="html=1;points=[];perimeter=orthogonalPerimeter;strokeColor=#67AB9F;strokeWidth=7;fillColor=#67AB9F;gradientColor=none;opacity=70;" vertex="1" parent="1">
          <mxGeometry x="600" y="670" width="10" height="40" as="geometry" />
        </mxCell>
        <mxCell id="4ZUGz-onwbik7Qpdnvin-15" value="Message d&#39;echec d&#39;ajout&amp;nbsp;" style="html=1;verticalAlign=bottom;endArrow=open;dashed=1;endSize=8;fontColor=#000000;" edge="1" parent="1" target="4ZUGz-onwbik7Qpdnvin-13">
          <mxGeometry relative="1" as="geometry">
            <mxPoint x="995" y="690" as="sourcePoint" />
            <mxPoint x="604.3235294117646" y="690" as="targetPoint" />
          </mxGeometry>
        </mxCell>
        <mxCell id="4ZUGz-onwbik7Qpdnvin-14" value="Message d&#39;echec d&#39;ajout&amp;nbsp;" style="html=1;verticalAlign=bottom;endArrow=open;dashed=1;endSize=8;fontColor=#000000;" edge="1" parent="1" target="_cQJjbfpAz3ZmFyTizoA-1">
          <mxGeometry relative="1" as="geometry">
            <mxPoint x="610" y="710" as="sourcePoint" />
            <mxPoint x="219.32352941176464" y="710" as="targetPoint" />
          </mxGeometry>
        </mxCell>
        <mxCell id="4ZUGz-onwbik7Qpdnvin-16" value="Break" style="shape=umlFrame;whiteSpace=wrap;html=1;fillColor=none;swimlaneFillColor=none;" vertex="1" parent="1">
          <mxGeometry x="40" y="630" width="1350" height="120" as="geometry" />
        </mxCell>
        <mxCell id="4ZUGz-onwbik7Qpdnvin-17" value="[ Lignes de fichier ]" style="text;align=center;fontStyle=1;verticalAlign=middle;spacingLeft=3;spacingRight=3;strokeColor=none;rotatable=0;points=[[0,0.5],[1,0.5]];portConstraint=eastwest;fillColor=none;gradientColor=none;opacity=70;fontColor=#000000;" vertex="1" parent="1">
          <mxGeometry x="100" y="460" width="80" height="26" as="geometry" />
        </mxCell>
        <mxCell id="4ZUGz-onwbik7Qpdnvin-19" value="" style="html=1;points=[];perimeter=orthogonalPerimeter;strokeColor=#67AB9F;strokeWidth=7;fillColor=#67AB9F;gradientColor=none;opacity=70;" vertex="1" parent="1">
          <mxGeometry x="600" y="787" width="10" height="40" as="geometry" />
        </mxCell>
        <mxCell id="4ZUGz-onwbik7Qpdnvin-20" value="Liste des utilisateurs ajoutÃ©s + Message de succes&amp;nbsp; &amp;nbsp;&amp;nbsp;" style="html=1;verticalAlign=bottom;endArrow=open;dashed=1;endSize=8;fontColor=#000000;" edge="1" parent="1" target="4ZUGz-onwbik7Qpdnvin-19">
          <mxGeometry relative="1" as="geometry">
            <mxPoint x="995" y="800" as="sourcePoint" />
            <mxPoint x="604.3235294117646" y="800" as="targetPoint" />
          </mxGeometry>
        </mxCell>
        <mxCell id="4ZUGz-onwbik7Qpdnvin-21" value="Interface liste des professeurs + message de succÃ¨s d&#39;ajout" style="html=1;verticalAlign=bottom;endArrow=open;dashed=1;endSize=8;fontColor=#000000;" edge="1" parent="1" target="_cQJjbfpAz3ZmFyTizoA-1">
          <mxGeometry x="0.0935" y="-6" relative="1" as="geometry">
            <mxPoint x="600" y="826" as="sourcePoint" />
            <mxPoint x="215" y="826" as="targetPoint" />
            <mxPoint x="1" as="offset" />
          </mxGeometry>
        </mxCell>
      </root>
    </mxGraphModel>
  </diagram>
</mxfile>
